<?xml version="1.0" standalone="no"?>
<!DOCTYPE svg PUBLIC "-//W3C//DTD SVG 1.1//EN" "http://www.w3.org/Graphics/SVG/1.1/DTD/svg11.dtd" >
<svg xmlns="http://www.w3.org/2000/svg">
<metadata>Generated by IcoMoon</metadata>
<defs>
<font id="resa-icon" horiz-adv-x="1024">
<font-face units-per-em="1024" ascent="960" descent="-64" />
<missing-glyph horiz-adv-x="1024" />
<glyph unicode="&#x20;" horiz-adv-x="512" d="" />
<glyph unicode="&#xe900;" glyph-name="cart" d="M321.536 374.272h385.024l188.416 346.112h-593.92v98.304h-212.992v-90.112h147.456v-473.088h516.096v55.296h-430.080v63.488zM731.136 290.304v-14.336h-475.136v473.088h-147.456v49.152h172.032v-98.304h579.584l-165.888-305.152h-393.216v-104.448h430.080zM628.736 146.944h116.736v94.208h-116.736v-94.208zM649.216 220.672h75.776v-53.248h-75.776v53.248zM245.76 146.944h116.736v94.208h-116.736v-94.208zM266.24 220.672h75.776v-53.248h-75.776v53.248z" />
<glyph unicode="&#xe901;" glyph-name="cart-full" d="M342.016 339.456h385.024l188.416 346.112h-593.92v98.304h-212.992v-90.112h147.456v-473.088h516.096v55.296h-430.080v63.488zM649.216 112.128h116.736v94.208h-116.736v-94.208zM266.24 112.128h116.736v94.208h-116.736v-94.208z" />
<glyph unicode="&#xe902;" glyph-name="client" d="M512 423.424c-71.68 0-172.032 120.832-172.032 237.568 0 118.784 59.392 180.224 172.032 180.224s172.032-63.488 172.032-180.224c0-116.736-100.352-237.568-172.032-237.568zM512 822.784c-102.4 0-151.552-53.248-151.552-159.744 0-102.4 90.112-217.088 151.552-217.088s151.552 114.688 151.552 217.088c0 106.496-49.152 159.744-151.552 159.744zM512 44.544c-305.152 0-399.36 16.384-399.36 116.736 0 147.456 133.12 245.76 333.824 245.76 10.24 0 14.336-8.192 26.624-28.672 10.24-16.384 28.672-47.104 40.96-47.104s30.72 30.72 40.96 47.104c12.288 18.432 16.384 28.672 26.624 28.672 190.464 0 333.824-106.496 333.824-245.76-4.096-100.352-98.304-116.736-403.456-116.736zM442.368 386.56c-184.32 0-309.248-92.16-309.248-225.28 0-73.728 53.248-96.256 378.88-96.256s378.88 22.528 378.88 96.256c0 145.408-159.744 223.232-309.248 225.28-2.048-4.096-8.192-12.288-12.288-18.432-14.336-26.624-34.816-57.344-57.344-57.344s-43.008 32.768-57.344 57.344c-4.096 6.144-10.24 14.336-12.288 18.432z" />
<glyph unicode="&#xe903;" glyph-name="client-full" d="M512 427.52c-71.68 0-172.032 120.832-172.032 237.568 0 118.784 59.392 180.224 172.032 180.224s172.032-63.488 172.032-180.224c0-116.736-100.352-237.568-172.032-237.568zM512 48.64c-305.152 0-399.36 16.384-399.36 116.736 0 147.456 133.12 245.76 333.824 245.76 10.24 0 14.336-8.192 26.624-28.672 10.24-16.384 28.672-47.104 40.96-47.104s30.72 30.72 40.96 47.104c12.288 18.432 16.384 28.672 26.624 28.672 190.464 0 333.824-106.496 333.824-245.76-4.096-100.352-98.304-116.736-403.456-116.736z" />
<glyph unicode="&#xe904;" glyph-name="date" d="M921.6 48.64h-819.2v710.656h118.784v77.824h106.496v-75.776h368.64v75.776h106.496v-75.776h118.784v-712.704zM122.88 69.12h778.24v669.696h-118.784v77.824-174.080h-65.536v96.256h-409.6v77.824-174.080h-65.536v96.256h-118.784v-669.696zM737.28 663.040h24.576v133.12h-24.576v-133.12zM262.144 663.040h24.576v133.12h-24.576v-133.12zM880.64 89.6h-737.28v509.952h737.28v-509.952zM163.84 110.080h696.32v468.992h-696.32v-468.992z" />
<glyph unicode="&#xe905;" glyph-name="date-full" d="M806.912 765.44v75.776h-106.496v-75.776h-368.64v75.776h-106.496v-75.776h-118.784v-710.656h819.2v710.656h-118.784zM741.376 800.256h24.576v-133.12h-24.576v133.12zM266.24 800.256h24.576v-133.12h-24.576v133.12zM864.256 116.224h-696.32v468.992h696.32v-468.992z" />
<glyph unicode="&#xe906;" glyph-name="edit" d="M122.88 38.4l81.92 356.352 2.048 2.048 428.032 460.8 266.24-247.808-430.080-464.896-348.16-106.496zM223.232 384.512l-71.68-315.392 309.248 96.256 413.696 444.416-239.616 219.136-411.648-444.416zM161.792 79.36l22.528 102.4 75.776-71.68-98.304-30.72zM196.608 142.848l-8.192-32.768 32.768 10.24-24.576 22.528zM428.032 220.672l-45.056 40.96 317.44 342.016 45.056-40.96-317.44-342.016zM413.696 263.68l14.336-14.336 290.816 313.344-14.336 14.336-290.816-313.344zM327.68 314.88l-45.056 40.96 317.44 342.016 45.056-40.96-317.44-342.016zM311.296 357.888l14.336-14.336 290.816 313.344-14.336 14.336-290.816-313.344z" />
<glyph unicode="&#xe907;" glyph-name="edit-full" d="M634.88 857.6l-430.080-460.8v-2.048l-81.92-356.352 348.16 106.496 430.080 462.848-266.24 249.856zM161.792 81.408l22.528 100.352 75.776-71.68-98.304-28.672zM282.624 357.888l317.44 342.016 45.056-40.96-317.44-344.064-45.056 43.008zM428.032 222.72l-45.056 40.96 317.44 342.016 45.056-40.96-317.44-342.016z" />
<glyph unicode="&#xe908;" glyph-name="group" d="M1013.76 304.64c0 108.544-96.256 190.464-237.568 206.848 28.672 40.96 45.056 88.064 45.056 131.072 0 100.352-51.2 153.6-145.408 153.6-77.824 0-126.976-36.864-141.312-106.496-14.336 2.048-30.72 2.048-45.056 0-14.336 69.632-63.488 106.496-141.312 106.496-96.256 0-145.408-53.248-145.408-153.6 0-43.008 16.384-90.112 45.056-131.072-145.408-14.336-237.568-94.208-237.568-206.848 0-61.44 40.96-86.016 163.84-94.208 0-4.096 0-6.144 0-10.24 0-86.016 79.872-100.352 337.92-100.352s337.92 14.336 337.92 100.352c0 4.096 0 6.144 0 10.24 122.88 8.192 163.84 32.768 163.84 94.208zM188.416 271.872c0-2.048-2.048-4.096-2.048-6.144-2.048-4.096-2.048-6.144-4.096-8.192 0-2.048-2.048-4.096-2.048-6.144s-2.048-6.144-2.048-8.192c0-2.048 0-4.096-2.048-6.144 0-2.048 0-2.048 0-4.096-122.88 8.192-145.408 32.768-145.408 73.728 0 106.496 92.16 180.224 235.52 186.368l20.48 2.048-12.288 14.336c-32.768 38.912-51.2 90.112-51.2 133.12 0 90.112 40.96 133.12 124.928 133.12 69.632 0 108.544-28.672 120.832-88.064-2.048 0-6.144-2.048-8.192-2.048-4.096 0-8.192-2.048-12.288-4.096s-8.192-4.096-12.288-6.144c-2.048-2.048-6.144-2.048-8.192-4.096-4.096-2.048-8.192-4.096-10.24-8.192-2.048-2.048-6.144-4.096-8.192-6.144-4.096-2.048-6.144-6.144-8.192-10.24-2.048-2.048-4.096-4.096-6.144-8.192s-4.096-8.192-6.144-12.288c-2.048-2.048-4.096-6.144-4.096-8.192-2.048-4.096-4.096-10.24-6.144-14.336s-2.048-6.144-4.096-10.24-2.048-12.288-4.096-18.432c0-4.096-2.048-6.144-2.048-10.24-2.048-10.24-2.048-20.48-2.048-30.72 0-43.008 16.384-81.92 30.72-106.496 4.096-8.192 10.24-16.384 14.336-22.528-14.336-2.048-28.672-4.096-43.008-6.144-6.144-2.048-14.336-2.048-20.48-4.096-2.048 0-4.096-2.048-6.144-2.048-4.096-2.048-8.192-2.048-12.288-4.096-2.048 0-4.096-2.048-6.144-2.048-4.096-2.048-8.192-2.048-12.288-4.096-2.048 0-4.096-2.048-6.144-2.048-4.096-2.048-6.144-2.048-10.24-4.096-2.048-2.048-4.096-2.048-6.144-4.096-4.096-2.048-6.144-4.096-10.24-4.096-2.048-2.048-4.096-2.048-6.144-4.096s-6.144-4.096-8.192-6.144c-2.048-2.048-4.096-2.048-6.144-4.096s-6.144-4.096-8.192-6.144c-2.048-2.048-4.096-4.096-6.144-4.096-2.048-2.048-4.096-4.096-6.144-6.144s-4.096-4.096-6.144-4.096c-2.048-2.048-4.096-4.096-6.144-6.144s-4.096-4.096-4.096-6.144c-2.048-2.048-4.096-4.096-6.144-6.144s-2.048-4.096-4.096-6.144c-2.048-2.048-4.096-4.096-4.096-8.192-2.048-2.048-2.048-4.096-4.096-6.144s-2.048-4.096-4.096-8.192c-2.048-2.048-2.048-4.096-4.096-6.144-4.096-4.096-4.096-6.144-6.144-8.192zM512 120.32c-274.432 0-317.44 18.432-317.44 79.872 0 6.144 0 12.288 0 18.432v0c8.192 81.92 71.68 139.264 176.128 161.792 18.432 4.096 38.912 6.144 59.392 8.192l20.48 2.048-12.288 16.384c-8.192 10.24-16.384 22.528-24.576 34.816-12.288 22.528-28.672 57.344-28.672 98.304 0 79.872 30.72 122.88 96.256 131.072 18.432 2.048 38.912 2.048 57.344 0 65.536-10.24 96.256-53.248 96.256-131.072 0-30.72-10.24-67.584-28.672-100.352-6.144-12.288-14.336-22.528-22.528-32.768l-10.24-18.432 20.48-2.048c18.432-2.048 38.912-4.096 57.344-8.192v0c100.352-22.528 167.936-83.968 178.176-159.744 0-6.144 2.048-12.288 2.048-18.432-2.048-61.44-45.056-79.872-319.488-79.872zM847.872 230.912c0 2.048 0 2.048 0 4.096s0 4.096-2.048 6.144c0 2.048-2.048 6.144-2.048 8.192s-2.048 4.096-2.048 6.144c0 2.048-2.048 6.144-2.048 8.192s-2.048 4.096-2.048 6.144c-2.048 2.048-2.048 6.144-4.096 8.192s-2.048 4.096-4.096 6.144c-2.048 2.048-2.048 4.096-4.096 8.192-2.048 2.048-2.048 4.096-4.096 6.144s-4.096 4.096-6.144 8.192c-2.048 2.048-2.048 4.096-4.096 6.144s-4.096 4.096-6.144 6.144c-2.048 2.048-4.096 4.096-4.096 6.144-2.048 2.048-4.096 4.096-6.144 6.144s-4.096 4.096-6.144 4.096c-2.048 2.048-4.096 4.096-8.192 6.144-2.048 2.048-4.096 4.096-6.144 4.096-2.048 2.048-6.144 4.096-8.192 6.144s-4.096 2.048-6.144 4.096c-2.048 2.048-6.144 4.096-8.192 6.144s-4.096 2.048-6.144 4.096c-2.048 2.048-6.144 4.096-10.24 4.096-2.048 2.048-4.096 2.048-6.144 4.096-4.096 2.048-6.144 4.096-10.24 4.096-2.048 2.048-4.096 2.048-6.144 4.096-4.096 2.048-8.192 2.048-10.24 4.096-4.096 0-6.144 0-8.192 0-4.096 2.048-8.192 2.048-12.288 4.096-2.048 0-4.096 2.048-6.144 2.048-6.144 2.048-12.288 4.096-20.48 4.096v0c-14.336 4.096-28.672 6.144-40.96 6.144 4.096 6.144 8.192 14.336 12.288 20.48 14.336 24.576 32.768 65.536 32.768 110.592 0 10.24 0 20.48-2.048 30.72 0 4.096-2.048 6.144-2.048 10.24 0 6.144-2.048 12.288-4.096 18.432 0 4.096-2.048 6.144-4.096 10.24s-4.096 10.24-6.144 14.336c-2.048 4.096-4.096 6.144-4.096 8.192-2.048 4.096-4.096 8.192-6.144 12.288-2.048 2.048-4.096 6.144-6.144 8.192-2.048 4.096-6.144 6.144-8.192 10.24-2.048 2.048-6.144 4.096-8.192 6.144-4.096 2.048-6.144 4.096-10.24 8.192-4.096 2.048-8.192 2.048-12.288 4.096s-8.192 4.096-12.288 6.144c-4.096 2.048-8.192 2.048-12.288 4.096-2.048 0-6.144 2.048-8.192 2.048 14.336 59.392 53.248 88.064 122.88 88.064 83.968 0 124.928-43.008 124.928-133.12 0-43.008-18.432-94.208-51.2-133.12l-12.288-16.384 20.48-2.048c114.688-8.192 235.52-69.632 235.52-186.368 0-43.008-22.528-65.536-145.408-73.728z" />
<glyph unicode="&#xe909;" glyph-name="group-full" d="M757.76 491.008l-20.48 2.048 12.288 16.384c32.768 38.912 51.2 90.112 51.2 133.12 0 90.112-40.96 133.12-124.928 133.12-69.632 0-108.544-28.672-120.832-88.064 2.048 0 6.144-2.048 8.192-2.048 4.096 0 8.192-2.048 12.288-4.096s8.192-4.096 12.288-6.144c4.096-2.048 6.144-2.048 10.24-4.096s8.192-4.096 10.24-8.192c2.048-2.048 6.144-4.096 8.192-6.144 4.096-2.048 6.144-6.144 8.192-10.24 2.048-2.048 4.096-4.096 6.144-8.192s4.096-8.192 6.144-12.288c2.048-2.048 4.096-6.144 4.096-8.192 2.048-4.096 4.096-10.24 6.144-14.336s2.048-6.144 4.096-10.24 2.048-12.288 4.096-18.432c0-4.096 2.048-6.144 2.048-10.24 2.048-10.24 2.048-20.48 2.048-30.72 0-45.056-16.384-83.968-32.768-110.592-4.096-8.192-8.192-14.336-12.288-20.48 14.336-2.048 28.672-4.096 40.96-6.144v0c6.144-2.048 12.288-4.096 20.48-4.096 2.048 0 4.096-2.048 6.144-2.048 4.096-2.048 8.192-2.048 12.288-4.096 2.048 0 4.096-2.048 6.144-2.048 4.096-2.048 8.192-2.048 10.24-4.096 2.048 0 4.096-2.048 6.144-4.096 4.096-2.048 6.144-2.048 10.24-4.096 2.048-2.048 4.096-2.048 6.144-4.096 4.096-2.048 6.144-4.096 10.24-4.096 2.048-2.048 4.096-2.048 6.144-4.096s6.144-4.096 8.192-6.144c2.048-2.048 4.096-2.048 6.144-4.096s6.144-4.096 8.192-6.144c2.048-2.048 4.096-4.096 6.144-4.096 2.048-2.048 4.096-4.096 8.192-6.144 2.048-2.048 4.096-4.096 6.144-4.096 2.048-2.048 4.096-4.096 6.144-6.144s4.096-4.096 4.096-6.144c2.048-2.048 4.096-4.096 6.144-6.144s2.048-4.096 4.096-6.144c2.048-2.048 4.096-4.096 6.144-8.192 2.048-2.048 2.048-4.096 4.096-6.144s4.096-4.096 4.096-8.192c2.048-2.048 2.048-4.096 4.096-6.144s2.048-6.144 4.096-8.192c0-2.048 2.048-4.096 2.048-6.144 2.048-2.048 2.048-6.144 2.048-8.192s2.048-4.096 2.048-6.144c0-2.048 2.048-6.144 2.048-8.192s2.048-4.096 2.048-6.144c0-2.048 0-2.048 0-4.096 122.88 8.192 145.408 32.768 145.408 73.728 2.048 120.832-120.832 182.272-233.472 188.416zM829.44 200.192c0 6.144 0 12.288-2.048 18.432-8.192 75.776-77.824 137.216-178.176 159.744v0c-18.432 4.096-38.912 6.144-57.344 8.192l-20.48 2.048 12.288 16.384c8.192 10.24 16.384 20.48 22.528 32.768 18.432 32.768 28.672 67.584 28.672 100.352 0 79.872-30.72 122.88-96.256 131.072-18.432 2.048-38.912 2.048-57.344 0-65.536-10.24-96.256-53.248-96.256-131.072 0-38.912 14.336-73.728 28.672-98.304 8.192-12.288 16.384-24.576 24.576-34.816l12.288-16.384-20.48-2.048c-20.48-2.048-38.912-4.096-59.392-8.192-102.4-20.48-167.936-79.872-176.128-161.792v0c0-6.144 0-12.288 0-18.432 0-59.392 43.008-79.872 317.44-79.872s317.44 20.48 317.44 81.92zM194.56 286.208c2.048 2.048 2.048 4.096 4.096 8.192 2.048 2.048 2.048 4.096 4.096 6.144s4.096 4.096 4.096 8.192c2.048 2.048 2.048 4.096 4.096 6.144s4.096 4.096 6.144 6.144c2.048 2.048 4.096 4.096 4.096 6.144 2.048 2.048 4.096 4.096 6.144 6.144s4.096 4.096 6.144 4.096c2.048 2.048 4.096 4.096 6.144 6.144s4.096 4.096 6.144 4.096c2.048 2.048 6.144 4.096 8.192 6.144s4.096 2.048 6.144 4.096c2.048 2.048 6.144 4.096 8.192 6.144s4.096 2.048 6.144 4.096c2.048 2.048 6.144 4.096 10.24 4.096 2.048 2.048 4.096 2.048 6.144 4.096 4.096 2.048 6.144 2.048 10.24 4.096 2.048 0 4.096 2.048 6.144 2.048 4.096 2.048 8.192 2.048 12.288 4.096 2.048 0 4.096 2.048 6.144 2.048 4.096 2.048 8.192 2.048 12.288 4.096 2.048 0 4.096 2.048 6.144 2.048 6.144 2.048 12.288 4.096 20.48 4.096 14.336 2.048 28.672 4.096 43.008 6.144-4.096 8.192-10.24 14.336-14.336 22.528-14.336 24.576-30.72 63.488-30.72 106.496 0 10.24 0 20.48 2.048 30.72 0 4.096 2.048 6.144 2.048 10.24 0 6.144 2.048 12.288 4.096 18.432 0 4.096 2.048 6.144 4.096 10.24s4.096 10.24 6.144 14.336c2.048 4.096 4.096 6.144 4.096 8.192 2.048 4.096 4.096 8.192 6.144 12.288 2.048 2.048 4.096 6.144 6.144 8.192 2.048 4.096 6.144 6.144 8.192 10.24 2.048 2.048 6.144 4.096 8.192 6.144 4.096 2.048 6.144 4.096 10.24 8.192 4.096 2.048 6.144 4.096 10.24 4.096 4.096 2.048 8.192 4.096 12.288 6.144s8.192 2.048 12.288 4.096c2.048 0 6.144 2.048 8.192 2.048-10.24 59.392-49.152 88.064-118.784 88.064-83.968 0-124.928-43.008-124.928-133.12 0-43.008 18.432-94.208 51.2-133.12l12.288-16.384-20.48-2.048c-143.36-8.192-235.52-81.92-235.52-186.368 0-43.008 22.528-65.536 145.408-73.728 0 2.048 0 2.048 0 4.096s0 4.096 2.048 6.144c0 2.048 2.048 6.144 2.048 8.192s2.048 4.096 2.048 6.144c0 2.048 2.048 6.144 2.048 8.192s2.048 4.096 2.048 6.144c2.048 2.048 2.048 6.144 4.096 8.192 2.048 4.096 4.096 6.144 4.096 8.192z" />
<glyph unicode="&#xe90a;" glyph-name="member" d="M512 417.28c-77.824 0-190.464 143.36-190.464 272.384 0 114.688 88.064 208.896 196.608 208.896 94.208 0 145.408-36.864 165.888-118.784 0-2.048 2.048-4.096 2.048-6.144l77.824-26.624c40.96-12.288 45.056-20.48 45.056-47.104v-10.24h-108.544c0-2.048 0-6.144 0-8.192 0-133.12-108.544-264.192-188.416-264.192zM518.144 878.080c-96.256 0-176.128-86.016-176.128-188.416 0-116.736 102.4-251.904 169.984-251.904s167.936 126.976 167.936 241.664c0 6.144 0 12.288 0 18.432v10.24h108.544c-2.048 8.192-6.144 10.24-30.72 18.432l-88.064 30.72-2.048 4.096c-2.048 4.096-2.048 8.192-4.096 12.288-18.432 73.728-61.44 104.448-145.408 104.448zM512-2.56c-335.872 0-440.32 18.432-440.32 126.976 0 174.080 112.64 270.336 317.44 270.336 8.192 0 16.384-6.144 51.2-32.768 22.528-16.384 63.488-49.152 71.68-49.152 10.24 0 51.2 32.768 71.68 49.152 34.816 26.624 43.008 32.768 51.2 32.768 196.608 0 317.44-104.448 317.44-270.336 0-108.544-104.448-126.976-440.32-126.976zM387.072 374.272c-192.512 0-294.912-86.016-294.912-249.856 0-86.016 77.824-106.496 419.84-106.496s419.84 20.48 419.84 106.496c0 153.6-112.64 249.856-294.912 249.856-6.144-2.048-24.576-16.384-38.912-28.672-49.152-38.912-71.68-53.248-83.968-53.248s-36.864 16.384-83.968 53.248c-18.432 12.288-36.864 26.624-43.008 28.672zM808.96 161.28h-163.84v81.92h163.84v-81.92zM665.6 181.76h122.88v40.96h-122.88v-40.96z" />
<glyph unicode="&#xe90b;" glyph-name="member-full" d="M512 417.28c-77.824 0-190.464 143.36-190.464 272.384 0 114.688 88.064 208.896 196.608 208.896 94.208 0 145.408-36.864 165.888-118.784 0-2.048 2.048-4.096 2.048-6.144l77.824-26.624c40.96-12.288 45.056-20.48 45.056-47.104v-10.24h-108.544c0-2.048 0-6.144 0-8.192 0-133.12-108.544-264.192-188.416-264.192zM634.88 394.752c-8.192 0-16.384-6.144-51.2-32.768-22.528-16.384-63.488-49.152-71.68-49.152-10.24 0-51.2 32.768-71.68 49.152-34.816 26.624-43.008 32.768-51.2 32.768-204.8 0-317.44-96.256-317.44-270.336 0-108.544 104.448-126.976 440.32-126.976s440.32 18.432 440.32 126.976c0 167.936-120.832 270.336-317.44 270.336zM808.96 161.28h-163.84v81.92h163.84v-81.92z" />
<glyph unicode="&#xe90c;" glyph-name="message" d="M784.384 212.48c63.488 71.68 98.304 163.84 98.304 260.096 0 217.088-178.176 395.264-395.264 395.264s-395.264-178.176-395.264-395.264c0-217.088 178.176-395.264 395.264-395.264 61.44 0 120.832 14.336 176.128 40.96l292.864-102.4-172.032 196.608zM661.504 140.8l-4.096-2.048c-53.248-26.624-110.592-40.96-169.984-40.96-206.848 0-374.784 167.936-374.784 374.784s167.936 374.784 374.784 374.784c206.848 0 374.784-167.936 374.784-374.784 0-94.208-34.816-184.32-98.304-253.952l-6.144-6.144 131.072-151.552-227.328 79.872zM290.816 570.88h389.12v-40.96h-389.12v40.96zM352.256 386.56h245.76v-40.96h-245.76v40.96z" />
<glyph unicode="&#xe90d;" glyph-name="message-full" d="M772.096 218.624c63.488 71.68 98.304 163.84 98.304 260.096 0 217.088-178.176 395.264-395.264 395.264s-395.264-178.176-395.264-395.264c0-217.088 178.176-395.264 395.264-395.264 61.44 0 120.832 14.336 176.128 40.96l292.864-102.4-172.032 196.608zM585.728 351.744h-245.76v40.96h245.76v-40.96zM667.648 536.064h-389.12v40.96h389.12v-40.96z" />
<glyph unicode="&#xe90e;" glyph-name="price" d="M593.92 38.4h-77.824c-57.344 0-102.4 16.384-137.216 51.2-34.816 32.768-51.2 79.872-51.2 137.216v100.352h-53.248c-20.48 0-34.816 14.336-34.816 34.816v20.48c0 20.48 14.336 32.768 34.816 32.768h53.248v57.344h-53.248c-20.48 0-34.816 14.336-34.816 32.768v24.576c0 20.48 14.336 32.768 34.816 32.768h53.248v104.448c0 57.344 18.432 104.448 51.2 137.216 34.816 36.864 79.872 53.248 137.216 53.248h77.824c57.344 0 104.448-16.384 139.264-51.2 34.816-32.768 51.2-79.872 51.2-137.216v-32.768c0-20.48-14.336-34.816-32.768-34.816h-34.816c-16.384 0-32.768 10.24-32.768 34.816v30.72c0 67.584-28.672 96.256-94.208 96.256h-67.584c-65.536 0-94.208-28.672-94.208-96.256v-102.4h169.984c20.48 0 34.816-14.336 34.816-32.768v-22.528c0-20.48-14.336-32.768-34.816-32.768h-169.984v-57.344h169.984c20.48 0 34.816-14.336 34.816-32.768v-20.48c0-20.48-14.336-34.816-34.816-34.816h-169.984v-98.304c0-67.584 28.672-96.256 94.208-96.256h67.584c65.536 0 94.208 28.672 94.208 96.256v30.72c0 24.576 16.384 34.816 32.768 34.816h34.816c20.48 0 32.768-14.336 32.768-34.816v-32.768c0-57.344-18.432-104.448-51.2-137.216-34.816-38.912-81.92-55.296-139.264-55.296zM274.432 396.8c-10.24 0-14.336-4.096-14.336-12.288v-20.48c0-10.24 4.096-14.336 14.336-14.336h73.728v-120.832c0-51.2 16.384-94.208 45.056-122.88 30.72-28.672 71.68-45.056 122.88-45.056h77.824c51.2 0 94.208 14.336 124.928 45.056s45.056 71.68 45.056 122.88v32.768c0 10.24-4.096 14.336-12.288 14.336h-34.816c-8.192 0-12.288-4.096-12.288-14.336v-30.72c0-77.824-36.864-116.736-114.688-116.736h-67.584c-77.824 0-114.688 38.912-114.688 116.736v118.784h190.464c10.24 0 14.336 4.096 14.336 14.336v20.48c0 8.192-4.096 12.288-14.336 12.288h-190.464v98.304h190.464c10.24 0 14.336 4.096 14.336 12.288v22.528c0 8.192-4.096 12.288-14.336 12.288h-190.464v122.88c0 77.824 36.864 116.736 114.688 116.736h67.584c77.824 0 114.688-38.912 114.688-116.736v-30.72c0-10.24 4.096-14.336 12.288-14.336h34.816c8.192 0 12.288 4.096 12.288 14.336v32.768c0 51.2-16.384 94.208-45.056 122.88-30.72 30.72-71.68 47.104-124.928 47.104h-77.824c-51.2 0-92.16-14.336-122.88-45.056-30.72-28.672-45.056-71.68-45.056-122.88v-124.928h-73.728c-10.24 0-14.336-4.096-14.336-12.288v-22.528c0-8.192 4.096-12.288 14.336-12.288h73.728v-98.304h-73.728z" />
<glyph unicode="&#xe90f;" glyph-name="price-full" d="M593.92 38.4h-77.824c-57.344 0-102.4 16.384-137.216 51.2-34.816 32.768-51.2 79.872-51.2 137.216v100.352h-53.248c-20.48 0-34.816 14.336-34.816 34.816v20.48c0 20.48 14.336 32.768 34.816 32.768h53.248v57.344h-53.248c-20.48 0-34.816 14.336-34.816 32.768v24.576c0 20.48 14.336 32.768 34.816 32.768h53.248v104.448c0 57.344 18.432 104.448 51.2 137.216 34.816 36.864 79.872 53.248 137.216 53.248h77.824c57.344 0 104.448-16.384 139.264-51.2 34.816-32.768 51.2-79.872 51.2-137.216v-32.768c0-20.48-14.336-34.816-32.768-34.816h-34.816c-16.384 0-32.768 10.24-32.768 34.816v30.72c0 67.584-28.672 96.256-94.208 96.256h-67.584c-65.536 0-94.208-28.672-94.208-96.256v-102.4h169.984c20.48 0 34.816-14.336 34.816-32.768v-22.528c0-20.48-14.336-32.768-34.816-32.768h-169.984v-57.344h169.984c20.48 0 34.816-14.336 34.816-32.768v-20.48c0-20.48-14.336-34.816-34.816-34.816h-169.984v-98.304c0-67.584 28.672-96.256 94.208-96.256h67.584c65.536 0 94.208 28.672 94.208 96.256v30.72c0 24.576 16.384 34.816 32.768 34.816h34.816c20.48 0 32.768-14.336 32.768-34.816v-32.768c0-57.344-18.432-104.448-51.2-137.216-34.816-38.912-81.92-55.296-139.264-55.296z" />
<glyph unicode="&#xe910;" glyph-name="reciept" d="M389.12 884.224l-272.384-272.384v-587.776h798.72v860.16h-526.336zM894.976 44.544h-757.76v559.104l260.096 260.096h497.664v-819.2zM372.736 792.064l-163.84-163.84h163.84zM516.096 699.904h286.72v-61.44h-286.72v61.44zM229.376 536.064h573.44v-61.44h-573.44v61.44zM229.376 372.224h286.72v-61.44h-286.72v61.44zM229.376 208.384h286.72v-61.44h-286.72v61.44zM659.456 300.544h-30.72v-20.48h30.72v-40.96h-30.72v-20.48h30.72v-81.92h143.36v71.68h-20.48v-51.2h-102.4v61.44h71.68v20.48h-71.68v40.96h71.68v20.48h-71.68v61.44h102.4v-30.72h20.48v51.2h-143.36z" />
<glyph unicode="&#xe911;" glyph-name="reciept-full" d="M385.024 878.080l-272.384-272.384v-587.776h798.72v860.16h-526.336zM512 693.76h286.72v-61.44h-286.72v61.44zM798.72 529.92v-61.44h-573.44v61.44h573.44zM368.64 785.92v-163.84h-163.84l163.84 163.84zM512 140.8h-286.72v61.44h286.72v-61.44zM512 304.64h-286.72v61.44h286.72v-61.44zM798.72 325.12h-20.48v30.72h-102.4v-61.44h71.68v-20.48h-71.68v-40.96h71.68v-20.48h-71.68v-61.44h102.4v51.2h20.48v-71.68h-143.36v81.92h-30.72v20.48h30.72v40.96h-30.72v20.48h30.72v81.92h143.36v-51.2z" />
<glyph unicode="&#xe912;" glyph-name="show" d="M512 181.76c-212.992 0-446.464 231.424-454.656 241.664l-26.624 24.576 24.576 24.576c10.24 10.24 243.712 241.664 456.704 241.664s446.464-229.376 454.656-239.616l24.576-24.576-24.576-24.576c-8.192-12.288-241.664-243.712-454.656-243.712zM59.392 448l10.24-10.24c10.24-10.24 237.568-235.52 442.368-235.52s432.128 225.28 440.32 233.472l10.24 10.24-10.24 10.24c-8.192 12.288-235.52 237.568-440.32 237.568s-432.128-225.28-440.32-235.52l-12.288-10.24zM512 265.728c-100.352 0-182.272 81.92-182.272 182.272s81.92 182.272 182.272 182.272 182.272-81.92 182.272-182.272-81.92-182.272-182.272-182.272zM512 609.792c-90.112 0-161.792-71.68-161.792-161.792s71.68-161.792 161.792-161.792 161.792 71.68 161.792 161.792c0 90.112-71.68 161.792-161.792 161.792zM512 323.072c-69.632 0-124.928 55.296-124.928 124.928 0 59.392 43.008 110.592 100.352 122.88l10.24 2.048 22.528-116.736 116.736-22.528-2.048-10.24c-12.288-57.344-63.488-100.352-122.88-100.352zM481.28 548.352c-43.008-12.288-73.728-53.248-73.728-100.352 0-57.344 47.104-104.448 104.448-104.448 47.104 0 86.016 30.72 100.352 73.728l-108.544 22.528-22.528 108.544z" />
<glyph unicode="&#xe913;" glyph-name="show-full" d="M497.664 572.928l-10.24-2.048c-57.344-12.288-100.352-63.488-100.352-122.88 0-69.632 55.296-124.928 124.928-124.928 59.392 0 110.592 43.008 122.88 100.352l2.048 10.24-116.736 22.528-22.528 116.736zM966.656 472.576c-8.192 10.24-241.664 241.664-454.656 241.664s-446.464-231.424-454.656-241.664l-26.624-24.576 24.576-24.576c10.24-10.24 243.712-241.664 456.704-241.664s446.464 229.376 454.656 239.616l24.576 24.576-24.576 26.624zM512 286.208c-90.112 0-161.792 71.68-161.792 161.792s71.68 161.792 161.792 161.792 161.792-71.68 161.792-161.792c0-90.112-71.68-161.792-161.792-161.792z" />
<glyph unicode="&#xe914;" glyph-name="ticket" d="M741.376 890.368l-57.344 40.96-57.344-40.96-57.344 40.96-57.344-40.96-57.344 40.96-57.344-40.96-57.344 40.96-57.344-40.96-67.584 49.152v-983.040l67.584 49.152 57.344-40.96 57.344 40.96 57.344-40.96 57.344 40.96 57.344-40.96 57.344 40.96 57.344-40.96 57.344 40.96 67.584-49.152v983.040l-67.584-49.152zM788.48-2.56l-47.104 32.768-57.344-40.96-57.344 40.96-57.344-40.96-57.344 40.96-57.344-40.96-57.344 40.96-57.344-40.96-57.344 40.96-47.104-32.768v901.12l47.104-32.768 57.344 40.96 57.344-40.96 57.344 40.96 57.344-40.96 57.344 40.96 57.344-40.96 57.344 40.96 57.344-40.96 47.104 32.768v-901.12zM327.68 755.2h368.64v-40.96h-368.64v40.96zM327.68 611.84h368.64v-40.96h-368.64v40.96zM327.68 468.48h368.64v-40.96h-368.64v40.96zM327.68 325.12h163.84v-40.96h-163.84v40.96zM327.68 181.76h163.84v-40.96h-163.84v40.96zM581.632 253.44h-24.576v-16.384h24.576v-34.816h-24.576v-16.384h24.576v-67.584h118.784v59.392h-16.384v-43.008h-83.968v51.2h57.344v16.384h-57.344v34.816h57.344v16.384h-57.344v51.2h83.968v-26.624h16.384v43.008h-118.784z" />
<glyph unicode="&#xe915;" glyph-name="ticket-full" d="M741.376 890.368l-57.344 40.96-57.344-40.96-57.344 40.96-57.344-40.96-57.344 40.96-57.344-40.96-57.344 40.96-57.344-40.96-67.584 49.152v-983.040l67.584 49.152 57.344-40.96 57.344 40.96 57.344-40.96 57.344 40.96 57.344-40.96 57.344 40.96 57.344-40.96 57.344 40.96 67.584-49.152v983.040l-67.584-49.152zM327.68 755.2h368.64v-40.96h-368.64v40.96zM327.68 611.84h368.64v-40.96h-368.64v40.96zM491.52 140.8h-163.84v40.96h163.84v-40.96zM491.52 284.16h-163.84v40.96h163.84v-40.96zM327.68 427.52v40.96h368.64v-40.96h-368.64zM700.416 278.016h-16.384v26.624h-83.968v-51.2h59.392v-16.384h-59.392v-34.816h59.392v-16.384h-59.392v-51.2h83.968v43.008h16.384v-59.392h-118.784v67.584h-24.576v16.384h24.576v32.768h-24.576v16.384h24.576v67.584h118.784v-40.96z" />
<glyph unicode="&#xe916;" glyph-name="trash" d="M348.16 144.896c-20.48 0-36.864 16.384-36.864 36.864v327.68c0 20.48 16.384 36.864 36.864 36.864s36.864-16.384 36.864-36.864v-327.68c0-20.48-16.384-36.864-36.864-36.864zM348.16 523.776c-8.192 0-16.384-6.144-16.384-16.384v-327.68c0-8.192 6.144-16.384 16.384-16.384s16.384 6.144 16.384 16.384v329.728c0 8.192-8.192 14.336-16.384 14.336zM675.84 144.896c-20.48 0-36.864 16.384-36.864 36.864v327.68c0 20.48 16.384 36.864 36.864 36.864s36.864-16.384 36.864-36.864v-327.68c0-20.48-16.384-36.864-36.864-36.864zM675.84 523.776c-8.192 0-16.384-6.144-16.384-16.384v-327.68c0-8.192 6.144-16.384 16.384-16.384s16.384 6.144 16.384 16.384v329.728c0 8.192-8.192 14.336-16.384 14.336zM512 144.896c-20.48 0-36.864 16.384-36.864 36.864v327.68c0 20.48 16.384 36.864 36.864 36.864s36.864-16.384 36.864-36.864v-327.68c0-20.48-16.384-36.864-36.864-36.864zM512 523.776c-8.192 0-16.384-6.144-16.384-16.384v-327.68c0-8.192 6.144-16.384 16.384-16.384s16.384 6.144 16.384 16.384v329.728c0 8.192-8.192 14.336-16.384 14.336zM673.792-2.56h-323.584c-90.112 0-163.84 73.728-163.84 163.84v485.376c-20.48 6.144-32.768 26.624-32.768 47.104v20.48c0 28.672 22.528 51.2 51.2 51.2h12.288c0 22.528 18.432 40.96 40.96 40.96h106.496v20.48c0 34.816 26.624 61.44 61.44 61.44h149.504c34.816 0 61.44-26.624 61.44-61.44v-20.48h129.024c22.528 0 40.96-18.432 40.96-40.96h12.288c28.672 0 51.2-22.528 51.2-51.2v-20.48c0-20.48-14.336-40.96-32.768-47.104v-485.376c0-90.112-73.728-163.84-163.84-163.84zM204.8 744.96c-16.384 0-30.72-14.336-30.72-30.72v-20.48c0-14.336 10.24-26.624 24.576-30.72l8.192-2.048v-499.712c0-79.872 63.488-143.36 143.36-143.36h323.584c79.872 0 143.36 63.488 143.36 143.36v499.712l8.192 2.048c14.336 2.048 24.576 16.384 24.576 30.72v20.48c0 16.384-14.336 30.72-30.72 30.72h-32.768v20.48c0 12.288-8.192 20.48-20.48 20.48h-149.504v40.96c0 22.528-18.432 40.96-40.96 40.96h-149.504c-22.528 0-40.96-18.432-40.96-40.96v-40.96h-126.976c-12.288 0-20.48-8.192-20.48-20.48v-20.48h-32.768zM673.792 58.88h-323.584c-57.344 0-102.4 45.056-102.4 102.4v501.76h528.384v-501.76c0-57.344-45.056-102.4-102.4-102.4zM268.288 642.56v-481.28c0-45.056 36.864-81.92 81.92-81.92h323.584c45.056 0 81.92 36.864 81.92 81.92v481.28h-487.424zM595.968 785.92h-190.464v40.96c0 12.288 8.192 20.48 20.48 20.48h149.504c12.288 0 20.48-8.192 20.48-20.48v-40.96zM425.984 806.4h149.504v20.48h-149.504v-20.48z" />
<glyph unicode="&#xe917;" glyph-name="trash-full" d="M247.808 165.376c0-57.344 45.056-102.4 102.4-102.4h323.584c57.344 0 102.4 45.056 102.4 102.4v501.76h-528.384v-501.76zM819.2 769.536h-12.288c0 22.528-18.432 40.96-40.96 40.96h-129.024v20.48c0 34.816-26.624 61.44-61.44 61.44h-149.504c-34.816 0-61.44-26.624-61.44-61.44v-20.48h-106.496c-22.528 0-40.96-18.432-40.96-40.96h-12.288c-28.672 0-51.2-22.528-51.2-51.2v-20.48c0-20.48 12.288-40.96 32.768-47.104v-485.376c0-90.112 73.728-163.84 163.84-163.84h323.584c90.112 0 163.84 73.728 163.84 163.84v485.376c18.432 8.192 32.768 26.624 32.768 47.104v20.48c0 28.672-22.528 51.2-51.2 51.2zM405.504 830.976c0 12.288 8.192 20.48 20.48 20.48h149.504c12.288 0 20.48-8.192 20.48-20.48v-40.96h-190.464v40.96zM776.192 165.376c0-57.344-45.056-102.4-102.4-102.4h-323.584c-57.344 0-102.4 45.056-102.4 102.4v501.76h528.384v-501.76zM348.16 550.4c-20.48 0-34.816-16.384-34.816-36.864v-327.68c0-20.48 16.384-36.864 34.816-36.864s36.864 16.384 36.864 36.864v327.68c0 20.48-16.384 36.864-36.864 36.864zM675.84 550.4c-20.48 0-36.864-16.384-36.864-36.864v-327.68c0-20.48 16.384-36.864 36.864-36.864s36.864 16.384 36.864 36.864v327.68c0 20.48-16.384 36.864-36.864 36.864zM512 550.4c-20.48 0-36.864-16.384-36.864-36.864v-327.68c0-20.48 16.384-36.864 36.864-36.864s36.864 16.384 36.864 36.864v327.68c0 20.48-16.384 36.864-36.864 36.864z" />
<glyph unicode="&#xe918;" glyph-name="reload" d="M198.656 558.592l-61.44 24.576c-2.048 0-4.096 2.048-6.144 2.048l-8.192 6.144 2.048 8.192c47.104 131.072 159.744 227.328 301.056 256 137.216 28.672 274.432-12.288 378.88-112.64v88.064h88.064v-256h-253.952v83.968h120.832c-28.672 45.056-129.024 106.496-208.896 114.688-161.792 12.288-274.432-55.296-348.16-206.848l-4.096-8.192zM147.456 601.6l40.96-16.384c75.776 153.6 198.656 223.232 364.544 210.944 92.16-8.192 217.088-83.968 233.472-141.312l4.096-12.288h-131.072v-43.008h215.040v210.944h-47.104v-116.736l-18.432 18.432c-102.4 106.496-239.616 153.6-378.88 124.928-131.072-28.672-235.52-114.688-282.624-235.52zM505.856 30.208c-104.448 0-200.704 40.96-288.768 120.832v-86.016h-88.064v256h253.952v-86.016h-120.832c71.68-79.872 153.6-116.736 251.904-114.688 141.312 2.048 241.664 69.632 305.152 208.896l4.096 8.192 79.872-32.768-4.096-10.24c-51.2-122.88-137.216-204.8-256-241.664-47.104-14.336-92.16-22.528-137.216-22.528zM196.608 200.192l18.432-16.384c124.928-122.88 268.288-159.744 423.936-110.592 108.544 34.816 188.416 108.544 237.568 221.184l-43.008 16.384c-69.632-137.216-176.128-208.896-321.536-210.944-110.592 0-202.752 43.008-280.576 139.264l-14.336 16.384h145.408v45.056h-212.992v-212.992h47.104v112.64z" />
<glyph unicode="&#xe919;" glyph-name="reload-full" d="M194.56 572.928c-18.432 8.192-34.816 14.336-51.2 20.48-2.048 0-4.096 2.048-6.144 4.096 96.256 264.192 456.704 358.4 679.936 122.88 0 34.816 0 67.584 0 102.4 24.576 0 45.056 0 67.584 0 0-77.824 0-155.648 0-235.52-77.824 0-155.648 0-235.52 0 0 20.48 0 43.008 0 63.488 43.008 0 83.968 0 126.976 0-16.384 53.248-135.168 126.976-225.28 135.168-167.936 12.288-284.672-61.44-356.352-212.992zM827.392 325.12c20.48-8.192 38.912-16.384 61.44-24.576-49.152-116.736-129.024-198.656-247.808-237.568-165.888-53.248-309.248-10.24-434.176 112.64 0-34.816 0-65.536 0-100.352-24.576 0-45.056 0-67.584 0 0 77.824 0 155.648 0 233.472 77.824 0 155.648 0 233.472 0 0-20.48 0-40.96 0-65.536-40.96 0-83.968 0-133.12 0 73.728-90.112 161.792-137.216 272.384-135.168 149.504 4.096 251.904 81.92 315.392 217.088z" />
</font>
</defs>
</svg>
